<svg id="Component_6_4" data-name="Component 6 – 4" xmlns="http://www.w3.org/2000/svg" width="25" height="24.918" viewBox="0 0 25 24.918">
  <path id="path22" d="M0,0A2.448,2.448,0,0,1,2.5-2.5,2.448,2.448,0,0,1,5,0V2.5A2.448,2.448,0,0,1,2.5,5,2.448,2.448,0,0,1,0,2.5Z" transform="translate(10 12.418)" fill="#ffac33" opacity="0"/>
  <path id="path26" d="M0,0A2.448,2.448,0,0,1,2.5,2.5,2.448,2.448,0,0,1,0,5H-2.5A2.448,2.448,0,0,1-5,2.5,2.448,2.448,0,0,1-2.5,0Z" transform="translate(12.5 9.918)" fill="#ffac33" opacity="0"/>
  <path id="path30" d="M0,0A2.448,2.448,0,0,1,2.5,2.5,2.448,2.448,0,0,1,0,5H-2.5A2.448,2.448,0,0,1-5,2.5,2.448,2.448,0,0,1-2.5,0Z" transform="translate(15 9.918)" fill="#ffac33" opacity="0"/>
  <path id="path34" d="M0,0A2.448,2.448,0,0,1,0,3.535a2.448,2.448,0,0,1-3.535,0L-5.3,1.768a2.449,2.449,0,0,1,0-3.536,2.449,2.449,0,0,1,3.536,0Z" transform="translate(11.401 9.035)" fill="#ffac33" opacity="0"/>
  <path id="path38" d="M0,0A2.448,2.448,0,0,1,0,3.535a2.448,2.448,0,0,1-3.535,0L-5.3,1.768a2.448,2.448,0,0,1,0-3.535,2.448,2.448,0,0,1,3.535,0Z" transform="translate(17.651 15.284)" fill="#ffac33" opacity="0"/>
  <path id="path42" d="M0,0A2.448,2.448,0,0,1-3.535,0a2.448,2.448,0,0,1,0-3.535L-1.768-5.3a2.448,2.448,0,0,1,3.535,0,2.448,2.448,0,0,1,0,3.535Z" transform="translate(17.135 12.57)" fill="#ffac33" opacity="0"/>
  <path id="path46" d="M0,0A2.448,2.448,0,0,1-3.535,0a2.448,2.448,0,0,1,0-3.535L-1.768-5.3a2.448,2.448,0,0,1,3.535,0,2.448,2.448,0,0,1,0,3.535Z" transform="translate(10.885 18.82)" fill="#ffac33" opacity="0"/>
  <path id="path50" d="M0,0A2.448,2.448,0,0,1,2.5-2.5,2.448,2.448,0,0,1,5,0V2.5A2.448,2.448,0,0,1,2.5,5,2.448,2.448,0,0,1,0,2.5Z" transform="translate(10 9.918)" fill="#ffac33" opacity="0"/>
  <path id="Path_41" data-name="Path 41" d="M-3527.75-228.523a12.417,12.417,0,0,1-8.839-3.661,12.418,12.418,0,0,1-3.661-8.839,12.487,12.487,0,0,1,11.06-12.418,9.766,9.766,0,0,0-4.85,8.418,9.739,9.739,0,0,0,9.728,9.727,9.677,9.677,0,0,0,9.054-6.166c0,.151.008.3.008.439a12.418,12.418,0,0,1-3.662,8.839A12.419,12.419,0,0,1-3527.75-228.523Z" transform="translate(3540.25 253.441)"/>
</svg>
