<svg id="Component_6_5" data-name="Component 6 – 5" xmlns="http://www.w3.org/2000/svg" width="45" height="45" viewBox="0 0 45 45">
  <path id="path22" d="M0,0A2.448,2.448,0,0,1,2.5-2.5,2.448,2.448,0,0,1,5,0V2.5A2.448,2.448,0,0,1,2.5,5,2.448,2.448,0,0,1,0,2.5Z" transform="translate(20 2.5)" fill="#ffac33"/>
  <path id="path26" d="M0,0A2.448,2.448,0,0,1,2.5,2.5,2.448,2.448,0,0,1,0,5H-2.5A2.448,2.448,0,0,1-5,2.5,2.448,2.448,0,0,1-2.5,0Z" transform="translate(42.5 20)" fill="#ffac33"/>
  <path id="path30" d="M0,0A2.448,2.448,0,0,1,2.5,2.5,2.448,2.448,0,0,1,0,5H-2.5A2.448,2.448,0,0,1-5,2.5,2.448,2.448,0,0,1-2.5,0Z" transform="translate(5 20)" fill="#ffac33"/>
  <path id="path34" d="M0,0A2.448,2.448,0,0,1,0,3.535a2.448,2.448,0,0,1-3.535,0L-5.3,1.768a2.449,2.449,0,0,1,0-3.536,2.449,2.449,0,0,1,3.536,0Z" transform="translate(11.401 9.117)" fill="#ffac33"/>
  <path id="path38" d="M0,0A2.448,2.448,0,0,1,0,3.535a2.448,2.448,0,0,1-3.535,0L-5.3,1.768a2.448,2.448,0,0,1,0-3.535,2.448,2.448,0,0,1,3.535,0Z" transform="translate(37.651 35.366)" fill="#ffac33"/>
  <path id="path42" d="M0,0A2.448,2.448,0,0,1-3.535,0a2.448,2.448,0,0,1,0-3.535L-1.768-5.3a2.448,2.448,0,0,1,3.535,0,2.448,2.448,0,0,1,0,3.535Z" transform="translate(37.135 12.651)" fill="#ffac33"/>
  <path id="path46" d="M0,0A2.448,2.448,0,0,1-3.535,0a2.448,2.448,0,0,1,0-3.535L-1.768-5.3a2.448,2.448,0,0,1,3.535,0,2.448,2.448,0,0,1,0,3.535Z" transform="translate(10.885 38.901)" fill="#ffac33"/>
  <path id="path50" d="M0,0A2.448,2.448,0,0,1,2.5-2.5,2.448,2.448,0,0,1,5,0V2.5A2.448,2.448,0,0,1,2.5,5,2.448,2.448,0,0,1,0,2.5Z" transform="translate(20 40)" fill="#ffac33"/>
  <path id="path54" d="M0,0A12.5,12.5,0,0,0-12.5-12.5,12.5,12.5,0,0,0-25,0,12.5,12.5,0,0,0-12.5,12.5,12.5,12.5,0,0,0,0,0" transform="translate(35 22.5)" fill="#ffac33"/>
</svg>
